USFL
nRows=265
nColumns=2
inDegrees=yes
endheader
time	tib_ant_r	
3.09375	 91.573987	
3.12702	 91.574611	
3.16028	 91.570382	
3.19355	 91.580619	
3.22681	 91.591920	
3.26008	 91.590939	
3.29335	 91.609326	
3.32661	 91.637817	
3.35988	 91.624659	
3.39315	 91.629925	
3.42641	 91.641843	
3.45968	 91.648402	
3.49294	 91.590203	
3.52621	 91.541551	
3.55948	 91.549088	
3.59274	 91.597610	
3.62601	 91.606463	
3.65927	 91.604315	
3.69254	 91.602425	
3.72581	 91.605243	
3.75907	 91.613815	
3.79234	 91.632531	
3.8256	 91.617183	
3.85887	 91.589077	
3.89214	 91.593822	
3.9254	 91.585572	
3.95867	 91.646934	
3.99194	 91.629856	
4.0252	 91.656421	
4.05847	 91.603064	
4.09173	 91.614148	
4.125	 91.624148	
4.15827	 91.611419	
4.19153	 91.618067	
4.2248	 91.549243	
4.25806	 91.548454	
4.29133	 91.561617	
4.3246	 91.552550	
4.35786	 91.550711	
4.39113	 91.563436	
4.4244	 91.564170	
4.45766	 91.571393	
4.49093	 91.605662	
4.52419	 91.613823	
4.55746	 91.638593	
4.59073	 91.668081	
4.62399	 91.662302	
4.65726	 91.677825	
4.69052	 91.789448	
4.72379	 91.834572	
4.75706	 91.811243	
4.79032	 91.839045	
4.82359	 91.887607	
4.85685	 92.015847	
4.89012	 92.167514	
4.92339	 92.209216	
4.95665	 92.409672	
4.98992	 92.671755	
5.02319	 92.550901	
5.05645	 92.726989	
5.08972	 92.805968	
5.12298	 92.598532	
5.15625	 92.212861	
5.18952	 92.315091	
5.22278	 91.694825	
5.25605	 91.243201	
5.28931	 91.240437	
5.32258	 90.848537	
5.35585	 91.097870	
5.38911	 90.826892	
5.42238	 90.637339	
5.45565	 90.548915	
5.48891	 75.220522	
5.52218	 75.039639	
5.55544	 74.878139	
5.58871	 74.778859	
5.62198	 74.807008	
5.65524	 74.726950	
5.68851	 74.346301	
5.72177	 73.823869	
5.75504	 73.253215	
5.78831	 72.977723	
5.82157	 67.143176	
5.85484	 66.764191	
5.8881	 66.471597	
5.92137	 66.209330	
5.95464	 66.091573	
5.9879	 65.922107	
6.02117	 65.801284	
6.05444	 65.712299	
6.0877	 65.710705	
6.12097	 65.446444	
6.15423	 65.230372	
6.1875	 65.167176	
6.22077	 64.968868	
6.25403	 64.747944	
6.2873	 64.750840	
6.32056	 64.592367	
6.35383	 64.383593	
6.3871	 64.386576	
6.42036	 64.208329	
6.45363	 64.255123	
6.4869	 64.120468	
6.52016	 64.046513	
6.55343	 64.096209	
6.58669	 63.907249	
6.61996	 63.755787	
6.65323	 63.658948	
6.68649	 63.335691	
6.71976	 63.094377	
6.75302	 62.988848	
6.78629	 62.876180	
6.81956	 62.738981	
6.85282	 62.629526	
6.88609	 62.526561	
6.91935	 62.584271	
6.95262	 62.517976	
6.98589	 62.507179	
7.01915	 62.446038	
7.05242	 62.456172	
7.08569	 62.452303	
7.11895	 62.449658	
7.15222	 62.390451	
7.18548	 62.407727	
7.21875	 62.401742	
7.25202	 62.420347	
7.28528	 62.485877	
7.31855	 62.409668	
7.35181	 62.328167	
7.38508	 62.365655	
7.41835	 62.343664	
7.45161	 62.408138	
7.48488	 62.488201	
7.51815	 62.405441	
7.55141	 62.298440	
7.58468	 62.275905	
7.61794	 62.261129	
7.65121	 62.264994	
7.68448	 62.228215	
7.71774	 62.209160	
7.75101	 62.225797	
7.78427	 62.195028	
7.81754	 62.171652	
7.85081	 62.187776	
7.88407	 62.163026	
7.91734	 62.251199	
7.9506	 62.202247	
7.98387	 62.203140	
8.01714	 62.261450	
8.0504	 62.179747	
8.08367	 62.141998	
8.11694	 62.122101	
8.1502	 62.121475	
8.18347	 62.115692	
8.21673	 62.091738	
8.25	 62.080959	
8.28327	 62.088262	
8.31653	 62.133919	
8.3498	 62.172648	
8.38306	 62.200598	
8.41633	 62.251396	
8.4496	 62.281187	
8.48286	 62.323997	
8.51613	 62.297162	
8.5494	 62.353620	
8.58266	 62.523290	
8.61593	 62.356435	
8.64919	 62.323198	
8.68246	 62.433760	
8.71573	 62.434538	
8.74899	 62.248265	
8.78226	 62.254234	
8.81552	 62.125936	
8.84879	 62.069610	
8.88206	 62.120199	
8.91532	 62.085721	
8.94859	 62.054660	
8.98185	 62.161688	
9.01512	 62.144611	
9.04839	 62.183270	
9.08165	 62.174432	
9.11492	 62.175811	
9.14819	 62.171488	
9.18145	 62.112740	
9.21472	 62.087527	
9.24798	 62.158755	
9.28125	 62.202276	
9.31452	 62.182392	
9.34778	 62.219986	
9.38105	 62.142983	
9.41431	 62.147364	
9.44758	 62.175231	
9.48085	 62.142299	
9.51411	 62.127102	
9.54738	 62.090823	
9.58065	 62.069021	
9.61391	 62.188408	
9.64718	 62.318100	
9.68044	 62.344038	
9.71371	 62.516171	
9.74698	 62.879345	
9.78024	 63.258514	
9.81351	 63.496984	
9.84677	 63.595208	
9.88004	 63.997441	
9.91331	 64.425269	
9.94657	 64.627831	
9.97984	 64.875753	
10.0131	 65.266724	
10.0464	 65.455756	
10.0796	 65.571477	
10.1129	 65.508798	
10.1462	 65.720990	
10.1794	 65.833025	
10.2127	 65.817530	
10.246	 66.058120	
10.2792	 66.225733	
10.3125	 66.048689	
10.3458	 66.558840	
10.379	 66.943637	
10.4123	 66.812769	
10.4456	 67.316356	
10.4788	 67.732816	
10.5121	 68.262038	
10.5454	 68.324316	
10.5786	 68.168497	
10.6119	 68.291486	
10.6452	 68.349940	
10.6784	 68.403038	
10.7117	 68.632613	
10.745	 68.890104	
10.7782	 68.838831	
10.8115	 69.328404	
10.8448	 70.057566	
10.878	 70.314582	
10.9113	 71.194452	
10.9446	 71.046829	
10.9778	 71.520433	
11.0111	 72.008759	
11.0444	 72.384523	
11.0776	 72.963946	
11.1109	 73.387062	
11.1442	 73.469949	
11.1774	 73.818979	
11.2107	 74.436801	
11.244	 74.832856	
11.2772	 75.230447	
11.3105	 75.347632	
11.3437	 75.270648	
11.377	 75.274504	
11.4103	 75.156482	
11.4435	 75.109659	
11.4768	 74.853142	
11.5101	 74.676058	
11.5433	 74.578157	
11.5766	 74.514301	
11.6099	 74.431276	
11.6431	 74.344209	
11.6764	 74.320023	
11.7097	 74.351574	
11.7429	 74.349659	
11.7762	 74.293656	
11.8095	 74.314191	
11.8427	 74.267759	
11.876	 74.234118	
